<?xml version="1.0" encoding="iso-8859-1"?>
<!-- Generator: Adobe Illustrator 19.0.0, SVG Export Plug-In . SVG Version: 6.00 Build 0)  -->
<svg version="1.1" id="Layer_1" xmlns="http://www.w3.org/2000/svg" xmlns:xlink="http://www.w3.org/1999/xlink" x="0px" y="0px"
	 viewBox="0 0 512 512" style="enable-background:new 0 0 512 512;" xml:space="preserve">
<rect x="443.626" y="198.822" style="fill:#AAA9AF;" width="22.261" height="93.585"/>
<path style="fill:#DDDCDF;" d="M454.762,208.96c-35.307,0-57.239-23.2-57.239-60.546c0-18.905,5.276-38.708,14.477-54.332
	c11.006-18.69,26.191-28.984,42.762-28.984c16.57,0,31.756,10.293,42.762,28.984c9.2,15.623,14.476,35.427,14.476,54.332
	C512,185.76,490.067,208.96,454.762,208.96z"/>
<path style="fill:#CCCCCF;" d="M454.762,208.96c0-30.052,0-110.191,0-143.862c16.57,0,31.756,10.293,42.762,28.984
	c9.2,15.623,14.476,35.427,14.476,54.332C512,185.76,490.067,208.96,454.762,208.96z"/>
<rect x="42.307" y="198.822" style="fill:#AAA9AF;" width="22.261" height="93.83"/>
<path style="fill:#DDDCDF;" d="M84.622,74.032v79.275h-20.05V74.032H42.311v79.275h-20.05V74.032H0v82.479
	c0,29.468,23.974,53.442,53.442,53.442s53.442-23.974,53.442-53.442V74.032H84.622z"/>
<path style="fill:#CCCCCF;" d="M84.622,74.032v79.275h-20.05V74.032h-11.13c0,0,0,116.006,0,135.919
	c29.468,0,53.442-23.974,53.442-53.442V74.032H84.622z"/>
<path style="fill:#E3744E;" d="M97.513,446.902H9.371v-170.95h88.142V446.902z"/>
<path style="fill:#E05323;" d="M97.513,446.902H53.442v-170.95h44.071V446.902z"/>
<path style="fill:#E3744E;" d="M498.833,446.902h-88.142v-170.95h88.142V446.902z"/>
<path style="fill:#E05323;" d="M498.833,446.902h-44.071v-170.95h44.071V446.902z"/>
<circle style="fill:#EDEDEE;" cx="254.241" cy="273.997" r="138.229"/>
<g>
	<path style="fill:#DDDCDF;" d="M392.466,274c0,76.339-61.885,138.224-138.224,138.224V135.775
		C330.581,135.775,392.466,197.66,392.466,274z"/>
	<circle style="fill:#DDDCDF;" cx="254.241" cy="273.997" r="78.08"/>
</g>
<path style="fill:#CCCCCF;" d="M332.323,274c0,43.123-34.957,78.08-78.08,78.08V195.918
	C297.364,195.918,332.323,230.877,332.323,274z"/>
<g>
</g>
<g>
</g>
<g>
</g>
<g>
</g>
<g>
</g>
<g>
</g>
<g>
</g>
<g>
</g>
<g>
</g>
<g>
</g>
<g>
</g>
<g>
</g>
<g>
</g>
<g>
</g>
<g>
</g>
</svg>
