<?xml version="1.0" encoding="iso-8859-1"?>
<!-- Generator: Adobe Illustrator 19.0.0, SVG Export Plug-In . SVG Version: 6.00 Build 0)  -->
<svg version="1.1" id="Layer_1" xmlns="http://www.w3.org/2000/svg" xmlns:xlink="http://www.w3.org/1999/xlink" x="0px" y="0px"
	 viewBox="0 0 512 512" style="enable-background:new 0 0 512 512;" xml:space="preserve">
<circle style="fill:#EDEDEE;" cx="256" cy="256" r="256"/>
<g>
	<path style="fill:#DDDCDF;" d="M512,256c0,141.384-114.616,256-256,256V0C397.384,0,512,114.616,512,256z"/>
	<circle style="fill:#DDDCDF;" cx="256" cy="256" r="144.607"/>
</g>
<path style="fill:#CCCCCF;" d="M400.61,256c0,79.866-64.745,144.61-144.61,144.61V111.39C335.866,111.39,400.61,176.134,400.61,256z
	"/>
<path style="fill:#E3744E;" d="M340.255,348.617c68.405-11.107,114.854-75.566,103.747-143.971
	C432.895,136.241,356.058,83.295,286.85,79.701c-43.808-2.275-179.226,12.967-223.343,116.592
	c-21.945,51.545,1.124,94.682,58.633,82.488c19.463-4.127,42.132-6.588,60.656-0.158C230.268,295.1,250.082,363.26,340.255,348.617z
	"/>
<path style="fill:#E05323;" d="M340.255,348.617c68.405-11.107,114.854-75.566,103.747-143.971
	C432.895,136.241,356.058,83.295,286.85,79.701c-7.752-0.403-18.374-0.257-30.85,0.83c0,22.191-0.008,203.024-0.008,252.28
	C276.407,346.138,301.999,354.829,340.255,348.617z"/>
<g>
	
		<rect x="104.409" y="162.389" transform="matrix(-0.9417 -0.3365 0.3365 -0.9417 155.051 438.7111)" style="fill:#A5401D;" width="22.261" height="87.064"/>
	
		<rect x="172.514" y="151.262" transform="matrix(-0.9417 -0.3365 0.3365 -0.9417 291.0325 440.0235)" style="fill:#A5401D;" width="22.261" height="87.064"/>
	
		<rect x="240.629" y="140.135" transform="matrix(-0.9417 -0.3365 0.3365 -0.9417 427.0356 441.3397)" style="fill:#A5401D;" width="22.261" height="87.064"/>
</g>
<circle style="fill:#F7F7F8;" cx="328.181" cy="228.085" r="50.087"/>
<path style="fill:#EDEDEE;" d="M378.264,228.087c0,27.662-22.424,50.087-50.087,50.087c0-38.654,0-90.354,0-100.174
	C355.84,178,378.264,200.425,378.264,228.087z"/>
<g>
</g>
<g>
</g>
<g>
</g>
<g>
</g>
<g>
</g>
<g>
</g>
<g>
</g>
<g>
</g>
<g>
</g>
<g>
</g>
<g>
</g>
<g>
</g>
<g>
</g>
<g>
</g>
<g>
</g>
</svg>
